<?xml version="1.0" encoding="UTF-8" standalone="no"?>
<!-- Created with Inkscape (http://www.inkscape.org/) -->

<svg
   width="1080"
   height="608"
   viewBox="0 0 1080 608"
   version="1.1"
   id="svg-envv-banner"
   sodipodi:docname="banner.svg"
   inkscape:version="1.3 (1:1.3+202307231459+0e150ed6c4)"
   xmlns:inkscape="http://www.inkscape.org/namespaces/inkscape"
   xmlns:sodipodi="http://sodipodi.sourceforge.net/DTD/sodipodi-0.dtd"
   xmlns="http://www.w3.org/2000/svg"
   xmlns:svg="http://www.w3.org/2000/svg">
  <sodipodi:namedview
     id="namedview1"
     pagecolor="#ffffff"
     bordercolor="#666666"
     borderopacity="1.0"
     inkscape:showpageshadow="2"
     inkscape:pageopacity="0.0"
     inkscape:pagecheckerboard="0"
     inkscape:deskcolor="#d1d1d1"
     inkscape:document-units="px"
     showguides="true"
     inkscape:zoom="1"
     inkscape:cx="407"
     inkscape:cy="456"
     inkscape:window-width="2560"
     inkscape:window-height="1413"
     inkscape:window-x="1920"
     inkscape:window-y="27"
     inkscape:window-maximized="1"
     inkscape:current-layer="layer1" />
  <defs
     id="defs1" />
  <g
     inkscape:label="ENVV-banner"
     inkscape:groupmode="layer"
     id="layer1">
    <rect
       style="fill:none;stroke:none;stroke-width:0;stroke-dasharray:none;stroke-opacity:1;fill-opacity:1"
       id="rect4"
       width="1072.0311"
       height="600.03107"
       x="3.9844661"
       y="3.9844661"
       inkscape:label="bg" />
    <rect
       style="fill:none;stroke:#ff0000;stroke-width:7.96893;stroke-dasharray:none;stroke-opacity:1"
       id="rect2"
       width="1072.0311"
       height="600.03107"
       x="3.9844661"
       y="3.9844661"
       inkscape:label="frame" />
    <g
       id="text2"
       style="font-weight:900;font-size:48px;line-height:1.05;font-family:'Noir Pro';-inkscape-font-specification:'Noir Pro Heavy';text-align:center;letter-spacing:0px;word-spacing:0px;text-anchor:middle;white-space:pre;inline-size:812.2;fill:#ff0000"
       inkscape:label="baseline"
       transform="translate(429.11311,73.697957)"
       aria-label="environment variables with schema validation and coerced values">
      <path
         style="font-weight:normal;-inkscape-font-specification:'Noir Pro';text-align:start;text-anchor:start"
         d="m -249.30409,352.99775 c 0,-7.488 -4.704,-12 -10.8,-12 -7.056,0 -11.472,5.328 -11.472,11.904 0,6.48 4.032,11.904 12.096,11.904 4.992,0 8.016,-2.256 8.64,-2.784 l -1.536,-4.128 c -1.824,1.296 -4.272,2.304 -7.008,2.304 -3.648,0 -6.768,-1.584 -7.488,-5.184 h 17.424 c 0.096,-0.624 0.144,-1.536 0.144,-2.016 z m -17.568,-2.208 c 0.096,-2.256 2.352,-5.184 6.576,-5.184 4.368,0 6.192,2.928 6.288,5.184 z m 33.9839,-9.792 c -3.6,0 -5.856,1.536 -7.2,3.072 v -2.688 h -4.608 v 23.04 h 4.608 v -12.672 c 0,-3.936 3.552,-6.144 6.336,-6.144 3.936,0 5.184,2.256 5.184,5.952 v 12.864 h 4.608 v -13.248 c 0,-6.816 -3.456,-10.176 -8.928,-10.176 z m 23.13597,24.192 11.136,-23.808 h -4.992 l -6.144,13.44 -6.144,-13.44 h -4.992 z m 16.89592,-27.648 c 1.92,0 3.456,-1.536 3.456,-3.456 0,-1.92 -1.536,-3.456 -3.456,-3.456 -1.92,0 -3.456,1.536 -3.456,3.456 0,1.92 1.536,3.456 3.456,3.456 z m -2.304,26.88 h 4.608 v -23.04 h -4.608 z m 15.74392,-18.096 v -4.944 h -4.608 v 23.04 h 4.608 v -10.272 c 0,-4.224 1.968,-6.768 4.992,-7.92 1.44,-0.528 3.12,-0.528 4.224,-0.192 v -5.04 c -4.32,0 -7.632,2.016 -9.216,5.328 z m 23.42391,-5.328 c -6.576,0 -11.904,5.328 -11.904,11.904 0,6.576 5.328,11.904 11.904,11.904 6.576,0 11.904,-5.328 11.904,-11.904 0,-6.576 -5.328,-11.904 -11.904,-11.904 z m 0,19.2 c -3.984,0 -7.296,-3.312 -7.296,-7.296 0,-3.984 3.312,-7.296 7.296,-7.296 3.984,0 7.296,3.312 7.296,7.296 0,3.984 -3.312,7.296 -7.296,7.296 z m 28.31989,-19.2 c -3.6,0 -5.856,1.536 -7.2,3.072 v -2.688 h -4.608 v 23.04 h 4.608 v -12.672 c 0,-3.936 3.552,-6.144 6.336,-6.144 3.936,0 5.184,2.256 5.184,5.952 v 12.864 h 4.608 v -13.248 c 0,-6.816 -3.456,-10.176 -8.928,-10.176 z m 40.319906,0 c -3.264,0 -5.52,1.008 -7.968,3.648 -1.392,-2.4 -3.648,-3.648 -6.623996,-3.648 -3.6,0 -5.088,1.536 -6.432,3.072 v -2.688 h -4.608 v 23.04 h 4.608 v -12.672 c 0,-3.936 2.784,-6.144 5.568,-6.144 3.167996,0 4.415996,2.256 4.415996,5.952 v 12.864 h 4.608 v -12.672 c 0,-3.936 2.784,-6.144 5.568,-6.144 3.168,0 4.416,2.256 4.416,5.952 v 12.864 h 4.608 v -12.864 c 0,-6.816 -3.072,-10.56 -8.16,-10.56 z m 35.039944,12 c 0,-7.488 -4.704,-12 -10.8,-12 -7.056,0 -11.472,5.328 -11.472,11.904 0,6.48 4.032,11.904 12.096,11.904 4.992,0 8.016,-2.256 8.64,-2.784 l -1.536,-4.128 c -1.824,1.296 -4.272,2.304 -7.008,2.304 -3.648,0 -6.768,-1.584 -7.488,-5.184 h 17.424 c 0.096,-0.624 0.144,-1.536 0.144,-2.016 z m -17.568,-2.208 c 0.096,-2.256 2.352,-5.184 6.576,-5.184 4.368,0 6.192,2.928 6.288,5.184 z m 33.983902,-9.792 c -3.6,0 -5.856,1.536 -7.2,3.072 v -2.688 h -4.608 v 23.04 h 4.608 v -12.672 c 0,-3.936 3.552,-6.144 6.336,-6.144 3.936,0 5.184,2.256 5.184,5.952 v 12.864 h 4.608 v -13.248 c 0,-6.816 -3.456,-10.176 -8.928,-10.176 z m 16.223911,15.888 c 0,4.416 1.44,7.92 5.808,7.92 1.296,0 2.4,-0.192 3.408,-0.672 v -4.656 c -1.056,0.528 -2.592,0.912 -3.696,0.096 -0.912,-0.672 -0.912,-2.352 -0.912,-3.984 v -9.6 h 4.608 v -4.608 h -4.608 v -9.216 h -4.608 v 9.216 h -3.072 v 4.608 h 3.072 z m 38.783951,8.304 11.136,-23.808 h -4.992 l -6.144,13.44 -6.144,-13.44 H 7.9750339 Z m 32.255914,-23.808 v 3.36 c -1.872,-2.448 -4.56,-3.744 -7.68,-3.744 -6.72,0 -11.52,5.328 -11.52,11.904 0,6.576 4.8,11.904 11.52,11.904 3.12,0 5.808,-1.296 7.68,-3.744 v 3.36 h 4.608 v -23.04 z m -7.296,18.816 c -4.032,0 -7.296,-3.264 -7.296,-7.296 0,-4.032 3.264,-7.296 7.296,-7.296 4.032,0 7.296,3.264 7.296,7.296 0,4.032 -3.264,7.296 -7.296,7.296 z m 23.039927,-13.872 v -4.944 h -4.608 v 23.04 h 4.608 v -10.272 c 0,-4.224 1.968,-6.768 4.992,-7.92 1.44,-0.528 3.12,-0.528 4.224,-0.192 v -5.04 c -4.32,0 -7.632,2.016 -9.216,5.328 z m 16.511918,-8.784 c 1.92,0 3.456,-1.536 3.456,-3.456 0,-1.92 -1.536,-3.456 -3.456,-3.456 -1.92,0 -3.456,1.536 -3.456,3.456 0,1.92 1.536,3.456 3.456,3.456 z m -2.304,26.88 h 4.608 v -23.04 h -4.608 z m 28.799927,-23.04 v 3.36 c -1.872,-2.448 -4.56,-3.744 -7.68,-3.744 -6.720002,0 -11.520002,5.328 -11.520002,11.904 0,6.576 4.8,11.904 11.520002,11.904 3.12,0 5.808,-1.296 7.68,-3.744 v 3.36 h 4.608 v -23.04 z m -7.296,18.816 c -4.032002,0 -7.296002,-3.264 -7.296002,-7.296 0,-4.032 3.264,-7.296 7.296002,-7.296 4.032,0 7.296,3.264 7.296,7.296 0,4.032 -3.264,7.296 -7.296,7.296 z m 23.03993,-29.568 h -4.608 v 33.792 h 4.608 v -3.36 c 1.872,2.448 4.56,3.744 7.68,3.744 6.72,0 11.52,-5.328 11.52,-11.904 0,-6.576 -4.8,-11.904 -11.52,-11.904 -3.12,0 -5.808,1.296 -7.68,3.744 z m 7.296,29.568 c -4.032,0 -7.296,-3.264 -7.296,-7.296 0,-4.032 3.264,-7.296 7.296,-7.296 4.032,0 7.296,3.264 7.296,7.296 0,4.032 -3.264,7.296 -7.296,7.296 z m 16.89592,-29.568 v 33.792 h 4.608 v -33.792 z m 31.48795,22.368 c 0,-7.488 -4.704,-12 -10.8,-12 -7.056,0 -11.472,5.328 -11.472,11.904 0,6.48 4.032,11.904 12.096,11.904 4.992,0 8.016,-2.256 8.64,-2.784 l -1.536,-4.128 c -1.824,1.296 -4.272,2.304 -7.008,2.304 -3.648,0 -6.768,-1.584 -7.488,-5.184 h 17.424 c 0.096,-0.624 0.144,-1.536 0.144,-2.016 z m -17.568,-2.208 c 0.096,-2.256 2.352,-5.184 6.576,-5.184 4.368,0 6.192,2.928 6.288,5.184 z m 32.20794,-0.576 c -2.688,-0.528 -5.424,-0.864 -5.424,-2.592 0,-1.584 2.496,-2.064 4.752,-2.016 2.832,0.048 5.712,1.152 6.768,1.92 l 1.584,-4.32 c -3.12,-1.68 -6.288,-2.208 -8.352,-2.208 -5.664,0 -9.36,2.736 -9.36,6.576 0,3.696 1.776,5.904 9.312,7.248 2.832,0.528 4.512,1.2 4.512,2.928 0,1.392 -1.776,2.496 -4.752,2.448 -2.592,-0.048 -6.192,-1.344 -8.016,-3.168 l -1.824,4.512 c 1.056,1.008 4.896,3.264 9.984,3.264 6,0 9.216,-3.024 9.216,-7.584 0,-2.832 -1.632,-5.712 -8.4,-7.008 z m 56.01597,-8.832 -5.376,13.728 -6.912,-14.496 -6.912,14.496 -5.376,-13.728 h -4.992 l 9.984,23.808 7.296,-14.784 7.296,14.784 9.984,-23.808 z m 11.13591,-3.84 c 1.92,0 3.456,-1.536 3.456,-3.456 0,-1.92 -1.536,-3.456 -3.456,-3.456 -1.92,0 -3.456,1.536 -3.456,3.456 0,1.92 1.536,3.456 3.456,3.456 z m -2.304,26.88 h 4.608 v -23.04 h -4.608 z m 13.05596,-7.536 c 0,4.416 1.44,7.92 5.808,7.92 1.296,0 2.4,-0.192 3.408,-0.672 v -4.656 c -1.056,0.528 -2.592,0.912 -3.696,0.096 -0.912,-0.672 -0.912,-2.352 -0.912,-3.984 v -9.6 h 4.608 v -4.608 h -4.608 v -9.216 h -4.608 v 9.216 h -3.072 v 4.608 h 3.072 z m 27.16793,-15.888 c -3.6,0 -5.856,1.536 -7.2,3.072 v -13.44 h -4.608 v 33.792 h 4.608 v -12.672 c 0,-3.936 3.552,-6.144 6.336,-6.144 3.936,0 5.184,2.256 5.184,5.952 v 12.864 h 4.608 v -12.864 c 0,-6.816 -3.072,-10.56 -8.928,-10.56 z m 39.69599,9.216 c -2.688,-0.528 -5.424,-0.864 -5.424,-2.592 0,-1.584 2.496,-2.064 4.752,-2.016 2.832,0.048 5.712,1.152 6.768,1.92 l 1.584,-4.32 c -3.12,-1.68 -6.288,-2.208 -8.352,-2.208 -5.664,0 -9.36,2.736 -9.36,6.576 0,3.696 1.776,5.904 9.312,7.248 2.832,0.528 4.512,1.2 4.512,2.928 0,1.392 -1.776,2.496 -4.752,2.448 -2.592,-0.048 -6.192,-1.344 -8.016,-3.168 l -1.824,4.512 c 1.056,1.008 4.896,3.264 9.984,3.264 6,0 9.216,-3.024 9.216,-7.584 0,-2.832 -1.632,-5.712 -8.4,-7.008 z m 11.85589,2.688 c 0,6.576 4.56,11.904 12.288,11.904 2.784,0 5.856,-0.912 7.68,-2.64 l -1.968,-4.32 c -1.44,1.44 -3.456,2.352 -5.664,2.352 -4.272,0 -7.728,-3.312 -7.728,-7.344 0,-3.936 3.456,-7.248 7.728,-7.248 2.208,0 4.224,0.912 5.664,2.304 l 1.968,-4.272 c -2.016,-1.824 -4.896,-2.64 -7.68,-2.64 -7.632,0 -12.288,5.328 -12.288,11.904 z m 36.76789,-11.904 c -3.6,0 -5.856,1.536 -7.2,3.072 v -13.44 h -4.608 v 33.792 h 4.608 v -12.672 c 0,-3.936 3.552,-6.144 6.336,-6.144 3.936,0 5.184,2.256 5.184,5.952 v 12.864 h 4.608 v -12.864 c 0,-6.816 -3.072,-10.56 -8.928,-10.56 z m 35.80794,12 c 0,-7.488 -4.704,-12 -10.8,-12 -7.056,0 -11.472,5.328 -11.472,11.904 0,6.48 4.032,11.904 12.096,11.904 4.992,0 8.016,-2.256 8.64,-2.784 l -1.536,-4.128 c -1.824,1.296 -4.272,2.304 -7.008,2.304 -3.648,0 -6.768,-1.584 -7.488,-5.184 h 17.424 c 0.096,-0.624 0.144,-1.536 0.144,-2.016 z m -17.568,-2.208 c 0.096,-2.256 2.352,-5.184 6.576,-5.184 4.368,0 6.192,2.928 6.288,5.184 z m 47.80793,-9.792 c -3.264,0 -5.52,1.008 -7.968,3.648 -1.392,-2.4 -3.648,-3.648 -6.624,-3.648 -3.6,0 -5.088,1.536 -6.432,3.072 v -2.688 h -4.608 v 23.04 h 4.608 v -12.672 c 0,-3.936 2.784,-6.144 5.568,-6.144 3.168,0 4.416,2.256 4.416,5.952 v 12.864 h 4.608 v -12.672 c 0,-3.936 2.784,-6.144 5.568,-6.144 3.168,0 4.416,2.256 4.416,5.952 v 12.864 h 4.608 v -12.864 c 0,-6.816 -3.072,-10.56 -8.16,-10.56 z m 31.96798,0.384 v 3.36 c -1.872,-2.448 -4.56,-3.744 -7.68,-3.744 -6.72,0 -11.52,5.328 -11.52,11.904 0,6.576 4.8,11.904 11.52,11.904 3.12,0 5.808,-1.296 7.68,-3.744 v 3.36 h 4.608 v -23.04 z m -7.296,18.816 c -4.032,0 -7.296,-3.264 -7.296,-7.296 0,-4.032 3.264,-7.296 7.296,-7.296 4.032,0 7.296,3.264 7.296,7.296 0,4.032 -3.264,7.296 -7.296,7.296 z"
         id="path1"
         inkscape:label="validation and coerced values" />
      <path
         style="font-weight:normal;-inkscape-font-specification:'Noir Pro';text-align:start;text-anchor:start"
         d="m -261.97609,415.58975 11.136,-23.808 h -4.992 l -6.144,13.44 -6.144,-13.44 h -4.992 z m 32.25591,-23.808 v 3.36 c -1.872,-2.448 -4.56,-3.744 -7.68,-3.744 -6.72,0 -11.52,5.328 -11.52,11.904 0,6.576 4.8,11.904 11.52,11.904 3.12,0 5.808,-1.296 7.68,-3.744 v 3.36 h 4.608 v -23.04 z m -7.296,18.816 c -4.032,0 -7.296,-3.264 -7.296,-7.296 0,-4.032 3.264,-7.296 7.296,-7.296 4.032,0 7.296,3.264 7.296,7.296 0,4.032 -3.264,7.296 -7.296,7.296 z m 18.43193,-29.568 v 33.792 h 4.608 v -33.792 z m 13.43992,6.912 c 1.92,0 3.456,-1.536 3.456,-3.456 0,-1.92 -1.536,-3.456 -3.456,-3.456 -1.92,0 -3.456,1.536 -3.456,3.456 0,1.92 1.536,3.456 3.456,3.456 z m -2.304,26.88 h 4.608 v -23.04 h -4.608 z m 28.79993,-33.792 v 14.112 c -1.872,-2.448 -4.56,-3.744 -7.68,-3.744 -6.72,0 -11.52,5.328 -11.52,11.904 0,6.576 4.8,11.904 11.52,11.904 3.12,0 5.808,-1.296 7.68,-3.744 v 3.36 h 4.608 v -33.792 z m -7.296,29.568 c -4.032,0 -7.296,-3.264 -7.296,-7.296 0,-4.032 3.264,-7.296 7.296,-7.296 4.032,0 7.296,3.264 7.296,7.296 0,4.032 -3.264,7.296 -7.296,7.296 z m 36.09592,-18.816 v 3.36 c -1.872,-2.448 -4.56,-3.744 -7.68,-3.744 -6.72,0 -11.52,5.328 -11.52,11.904 0,6.576 4.8,11.904 11.52,11.904 3.12,0 5.808,-1.296 7.68,-3.744 v 3.36 h 4.608 v -23.04 z m -7.296,18.816 c -4.032,0 -7.296,-3.264 -7.296,-7.296 0,-4.032 3.264,-7.296 7.296,-7.296 4.032,0 7.296,3.264 7.296,7.296 0,4.032 -3.264,7.296 -7.296,7.296 z m 20.352,-3.312 c 0,4.416 1.44,7.92 5.808,7.92 1.296,0 2.4,-0.192 3.408,-0.672 v -4.656 c -1.056,0.528 -2.592,0.912 -3.696,0.096 -0.912,-0.672 -0.912,-2.352 -0.912,-3.984 v -9.6 h 4.608 v -4.608 h -4.608 v -9.216 h -4.608 v 9.216 h -3.072 v 4.608 h 3.072 z m 17.66396,-19.344 c 1.92,0 3.456,-1.536 3.456,-3.456 0,-1.92 -1.536,-3.456 -3.456,-3.456 -1.92,0 -3.456,1.536 -3.456,3.456 0,1.92 1.536,3.456 3.456,3.456 z m -2.304,26.88 h 4.608 v -23.04 h -4.608 z m 21.11995,-23.424 c -6.576,0 -11.904,5.328 -11.904,11.904 0,6.576 5.328,11.904 11.904,11.904 6.576004,0 11.904004,-5.328 11.904004,-11.904 0,-6.576 -5.328,-11.904 -11.904004,-11.904 z m 0,19.2 c -3.984,0 -7.296,-3.312 -7.296,-7.296 0,-3.984 3.312,-7.296 7.296,-7.296 3.984004,0 7.296004,3.312 7.296004,7.296 0,3.984 -3.312,7.296 -7.296004,7.296 z m 28.319887,-19.2 c -3.6,0 -5.856,1.536 -7.2,3.072 v -2.688 h -4.608 v 23.04 h 4.608 v -12.672 c 0,-3.936 3.552,-6.144 6.336,-6.144 3.936,0 5.184,2.256 5.184,5.952 v 12.864 h 4.608 v -13.248 c 0,-6.816 -3.456,-10.176 -8.928,-10.176 z m 48.095959,0.384 v 3.36 c -1.872,-2.448 -4.56,-3.744 -7.68,-3.744 -6.72,0 -11.52,5.328 -11.52,11.904 0,6.576 4.8,11.904 11.52,11.904 3.12,0 5.808,-1.296 7.68,-3.744 v 3.36 h 4.608 v -23.04 z m -7.296,18.816 c -4.032,0 -7.296,-3.264 -7.296,-7.296 0,-4.032 3.264,-7.296 7.296,-7.296 4.032,0 7.296,3.264 7.296,7.296 0,4.032 -3.264,7.296 -7.296,7.296 z m 30.23992712,-19.2 c -3.60000002,0 -5.85600002,1.536 -7.20000002,3.072 v -2.688 h -4.6080001 v 23.04 h 4.6080001 v -12.672 c 0,-3.936 3.552,-6.144 6.336,-6.144 3.936,0 5.184,2.256 5.184,5.952 v 12.864 h 4.608 v -13.248 c 0,-6.816 -3.456,-10.176 -8.92799998,-10.176 z m 32.73597388,-10.368 v 14.112 c -1.872,-2.448 -4.56,-3.744 -7.68,-3.744 -6.72,0 -11.52,5.328 -11.52,11.904 0,6.576 4.8,11.904 11.52,11.904 3.12,0 5.808,-1.296 7.68,-3.744 v 3.36 h 4.608 v -33.792 z m -7.296,29.568 c -4.032,0 -7.296,-3.264 -7.296,-7.296 0,-4.032 3.264,-7.296 7.296,-7.296 4.032,0 7.296,3.264 7.296,7.296 0,4.032 -3.264,7.296 -7.296,7.296 z m 32.639976,-7.296 c 0,6.576 4.56,11.904 12.288,11.904 2.784,0 5.856,-0.912 7.68,-2.64 l -1.968,-4.32 c -1.44,1.44 -3.456,2.352 -5.664,2.352 -4.272,0 -7.728,-3.312 -7.728,-7.344 0,-3.936 3.456,-7.248 7.728,-7.248 2.208,0 4.224,0.912 5.664,2.304 l 1.968,-4.272 c -2.016,-1.824 -4.896,-2.64 -7.68,-2.64 -7.632,0 -12.288,5.328 -12.288,11.904 z m 34.943887,-11.904 c -6.576,0 -11.904,5.328 -11.904,11.904 0,6.576 5.328,11.904 11.904,11.904 6.576,0 11.904,-5.328 11.904,-11.904 0,-6.576 -5.328,-11.904 -11.904,-11.904 z m 0,19.2 c -3.984,0 -7.296,-3.312 -7.296,-7.296 0,-3.984 3.312,-7.296 7.296,-7.296 3.984,0 7.296,3.312 7.296,7.296 0,3.984 -3.312,7.296 -7.296,7.296 z m 38.01592,-7.2 c 0,-7.488 -4.704,-12 -10.8,-12 -7.056,0 -11.472,5.328 -11.472,11.904 0,6.48 4.032,11.904 12.096,11.904 4.992,0 8.016,-2.256 8.64,-2.784 l -1.536,-4.128 c -1.824,1.296 -4.272,2.304 -7.008,2.304 -3.648,0 -6.768,-1.584 -7.488,-5.184 h 17.424 c 0.096,-0.624 0.144,-1.536 0.144,-2.016 z m -17.568,-2.208 c 0.096,-2.256 2.352,-5.184 6.576,-5.184 4.368,0 6.192,2.928 6.288,5.184 z m 26.7839,-4.464 v -4.944 h -4.608 v 23.04 h 4.608 v -10.272 c 0,-4.224 1.968,-6.768 4.992,-7.92 1.44,-0.528 3.12,-0.528 4.224,-0.192 v -5.04 c -4.32,0 -7.632,2.016 -9.216,5.328 z m 11.51991,6.576 c 0,6.576 4.56,11.904 12.288,11.904 2.784,0 5.856,-0.912 7.68,-2.64 l -1.968,-4.32 c -1.44,1.44 -3.456,2.352 -5.664,2.352 -4.272,0 -7.728,-3.312 -7.728,-7.344 0,-3.936 3.456,-7.248 7.728,-7.248 2.208,0 4.224,0.912 5.664,2.304 l 1.968,-4.272 c -2.016,-1.824 -4.896,-2.64 -7.68,-2.64 -7.632,0 -12.288,5.328 -12.288,11.904 z m 45.31189,0.096 c 0,-7.488 -4.704,-12 -10.8,-12 -7.056,0 -11.472,5.328 -11.472,11.904 0,6.48 4.032,11.904 12.096,11.904 4.992,0 8.016,-2.256 8.64,-2.784 l -1.536,-4.128 c -1.824,1.296 -4.272,2.304 -7.008,2.304 -3.648,0 -6.768,-1.584 -7.488,-5.184 h 17.424 c 0.096,-0.624 0.144,-1.536 0.144,-2.016 z m -17.568,-2.208 c 0.096,-2.256 2.352,-5.184 6.576,-5.184 4.368,0 6.192,2.928 6.288,5.184 z m 40.60794,-20.16 v 14.112 c -1.872,-2.448 -4.56,-3.744 -7.68,-3.744 -6.72,0 -11.52,5.328 -11.52,11.904 0,6.576 4.8,11.904 11.52,11.904 3.12,0 5.808,-1.296 7.68,-3.744 v 3.36 h 4.608 v -33.792 z m -7.296,29.568 c -4.032,0 -7.296,-3.264 -7.296,-7.296 0,-4.032 3.264,-7.296 7.296,-7.296 4.032,0 7.296,3.264 7.296,7.296 0,4.032 -3.264,7.296 -7.296,7.296 z m 42.23997,4.992 11.136,-23.808 h -4.992 l -6.144,13.44 -6.144,-13.44 h -4.992 z m 32.25595,-23.808 v 3.36 c -1.872,-2.448 -4.56,-3.744 -7.68,-3.744 -6.72,0 -11.52,5.328 -11.52,11.904 0,6.576 4.8,11.904 11.52,11.904 3.12,0 5.808,-1.296 7.68,-3.744 v 3.36 h 4.608 v -23.04 z m -7.296,18.816 c -4.032,0 -7.296,-3.264 -7.296,-7.296 0,-4.032 3.264,-7.296 7.296,-7.296 4.032,0 7.296,3.264 7.296,7.296 0,4.032 -3.264,7.296 -7.296,7.296 z m 18.43192,-29.568 v 33.792 h 4.608 v -33.792 z m 19.29587,34.176 c 3.6,0 5.856,-1.536 7.2,-3.072 v 2.688 h 4.608 v -23.04 h -4.608 v 12.672 c 0,3.936 -3.552,6.144 -6.336,6.144 -3.936,0 -5.184,-2.256 -5.184,-5.952 v -12.864 h -4.608 v 13.248 c 0,6.816 3.456,10.176 8.928,10.176 z m 38.68794,-11.808 c 0,-7.488 -4.704,-12 -10.8,-12 -7.056,0 -11.472,5.328 -11.472,11.904 0,6.48 4.032,11.904 12.096,11.904 4.992,0 8.016,-2.256 8.64,-2.784 l -1.536,-4.128 c -1.824,1.296 -4.272,2.304 -7.008,2.304 -3.648,0 -6.768,-1.584 -7.488,-5.184 h 17.424 c 0.096,-0.624 0.144,-1.536 0.144,-2.016 z m -17.568,-2.208 c 0.096,-2.256 2.352,-5.184 6.576,-5.184 4.368,0 6.192,2.928 6.288,5.184 z m 32.20793,-0.576 c -2.688,-0.528 -5.424,-0.864 -5.424,-2.592 0,-1.584 2.496,-2.064 4.752,-2.016 2.832,0.048 5.712,1.152 6.768,1.92 l 1.584,-4.32 c -3.12,-1.68 -6.288,-2.208 -8.352,-2.208 -5.664,0 -9.36,2.736 -9.36,6.576 0,3.696 1.776,5.904 9.312,7.248 2.832,0.528 4.512,1.2 4.512,2.928 0,1.392 -1.776,2.496 -4.752,2.448 -2.592,-0.048 -6.192,-1.344 -8.016,-3.168 l -1.824,4.512 c 1.056,1.008 4.896,3.264 9.984,3.264 6,0 9.216,-3.024 9.216,-7.584 0,-2.832 -1.632,-5.712 -8.4,-7.008 z"
         id="path2"
         inkscape:label="environment variables with schema" />
    </g>
    <g
       id="g2"
       transform="matrix(1.5896931,0,0,1.5896931,-424.0721,-129.24581)"
       inkscape:label="ENVV">
      <path
         style="font-weight:500;font-size:193.452px;line-height:1.25;font-family:'Noir Pro';-inkscape-font-specification:'Noir Pro Medium';text-align:center;letter-spacing:0px;word-spacing:0px;text-anchor:middle;fill:#ff0000;stroke-width:1.00756"
         d="m 445.37232,194.50101 v -24.76186 h -80.47603 v 129.99974 h 80.47603 v -24.76185 h -55.71417 v -27.85709 h 46.42848 v -24.76186 h -46.42848 v -27.85708 z m 111.42833,-24.76186 v 89.76173 l -64.99987,-89.76173 h -24.76186 v 129.99974 h 24.76186 v -89.76172 l 64.99987,89.76172 h 24.76186 V 169.73915 Z m 89.76161,129.99974 h 18.57139 L 717.75259,169.73915 H 689.8955 l -34.04755,86.66649 -34.04755,-86.66649 h -27.85709 z"
         id="text1"
         inkscape:label="ENV"
         aria-label="ENV" />
      <path
         style="font-weight:500;font-size:185.68px;line-height:1.25;font-family:'Noir Pro';-inkscape-font-specification:'Noir Pro Medium';text-align:center;letter-spacing:0px;word-spacing:0px;text-anchor:middle;fill:none;stroke:#ff0000;stroke-width:5.22315"
         d="m -725.42284,-288.57489 h 17.82528 l 50.50496,-124.77696 h -26.73792 l -32.67968,83.18464 -32.67968,-83.18464 h -26.73791 z"
         id="text1-5"
         inkscape:label="V"
         transform="matrix(-0.70710678,-0.70710678,-0.70710678,0.70710678,0,0)"
         aria-label="V" />
    </g>
    <path
       d="m 155.9362,404.14188 v -0.0958 q -0.0958,-0.0958 -0.0958,-0.19156 l -0.0958,-0.0958 q 0,-0.0958 -0.0958,-0.19156 l -8.90761,-11.68526 -0.0958,-0.0958 -0.0958,-0.0958 -0.0958,-0.0958 q -0.0958,0 -0.0958,-0.0479 0,-0.0479 -0.0958,-0.0479 -0.0479,0 -0.0479,-0.0958 h -0.19156 l -0.0958,-0.0479 h -0.28734 -24.51989 q -0.76624,0 -1.10148,0.5268 l -9.09917,11.68526 q -0.0958,0 -0.0958,0.19156 l -0.0958,0.0958 q 0,0.0958 -0.0958,0.28734 v 0.0958 0.28734 0.19157 0.0958 q 0.0958,0.0958 0.0958,0.19156 0.0958,0.19156 0.28734,0.33523 l 21.59857,23.51419 q 0.19156,0.19156 0.28734,0.19156 0.19156,0.19156 0.28734,0.19156 h 0.0958 q 0.0958,0.0958 0.38313,0.0479 0.28734,0 0.38312,-0.0479 h 0.0958 q 0.0958,0 0.0958,0 l 0.14367,-0.0958 q 0,-0.0958 0.0958,-0.0958 l 0.19157,-0.19156 20.97599,-23.51419 q 0,-0.0958 0.0958,-0.14367 0,-0.0958 0.0958,-0.19156 0,-0.0958 0.0958,-0.19156 v -0.19157 -0.0958 -0.28734 z m -12.06838,-10.10487 -1.67616,7.4709 -5.84263,-7.4709 z m -10.29643,0.9578 6.27364,8.04559 h -11.9726 z m -2.72976,-0.9578 -5.31583,7.56668 -2.44241,-7.56668 z m -10.20065,1.4846 2.44241,7.51879 h -8.23715 z m -5.5074,10.29643 h 8.90762 l 5.89052,15.9954 z m 18.62937,18.24625 -6.84833,-18.24625 h 14.03189 z m 4.02279,-2.87343 6.08208,-15.37282 h 7.66247 z m 6.89622,-18.15046 1.58038,-7.13567 5.55529,7.13567 z"
       id="text3"
       style="font-weight:900;font-size:47.8904px;line-height:1.25;font-family:'Noir Pro';-inkscape-font-specification:'Noir Pro Heavy';text-align:center;letter-spacing:0px;word-spacing:0px;text-anchor:middle;fill:#ff0000;stroke-width:0.997717"
       inkscape:label="ruby-icon"
       aria-label="" />
  </g>
</svg>
